<?xml version="1.0" encoding="UTF-8"?>
<svg id="svg2" xmlns="http://www.w3.org/2000/svg" viewBox="0 0 2486.21 2298.69">
  <defs>
    <style>
      .cls-1 {
        fill: #bdbcba;
      }

      .cls-2 {
        fill: #39393a;
      }
    </style>
  </defs>
  <g id="g8">
    <g id="calves">
      <path id="body" class="cls-1" d="M2483.46,1172.37c-3.25-3.41-20.65-14.63-24.88-19.01-4.23-4.39-4.23-7.8-15.92-27.96-11.71-20.16-55.36-38.05-60.24-39.03-4.88-.97-14.39-12.92-16.83-19.51-10.05-27.15-33.65-119.99-43.89-202.89-10.25-82.92-48.77-129.75-69.75-158.52.97-79.51-17.27-96.07-27.32-121.44.97-20,7.92-63.45,3.23-120.59-3.71-45.25-60.29-99.23-95.41-104.11-22.73-3.16-35.28,2.28-64.69,0-29.43-2.27-84.55-51.69-87.48-57.55-2.92-5.85-9.09-54.63-4.55-60.8,4.55-6.19,5.2-.33,9.76-13.01,4.55-12.68,2.09-35.48,2.09-35.48,0,0,1.21-4.87,2.05-1.51.48,1.95,1.45,3.99,3.65,5.12,3.4,1.77,7.64-6.45,12.11-14.23,11.88-20.68,23.01-60.15,6.59-65.11-2.99-.91-7.32,6.83-7.32,6.83,0-3.91,3.91-40-1.95-62.43-4.68-17.97-22.24-35.95-36.09-46.83-16.92-13.29-51.44-14.24-60.03-14.31h-1.53c-8.6.07-43.11,1.01-60.04,14.31-13.85,10.88-31.4,28.85-36.09,46.83-5.85,22.43-1.95,58.52-1.95,62.43,0,0-4.32-7.73-7.32-6.83-16.41,4.96-5.29,44.43,6.59,65.11,4.47,7.77,8.71,16,12.12,14.23,2.19-1.13,3.16-3.17,3.65-5.12.84-3.36,2.05,1.51,2.05,1.51,0,0-2.47,22.8,2.09,35.48,4.55,12.68,5.2,6.83,9.76,13.01,4.55,6.17-1.63,54.95-4.56,60.8-2.92,5.85-58.04,55.28-87.47,57.55-29.43,2.28-41.96-3.16-64.71,0-35.12,4.88-91.69,58.85-95.41,104.11-4.68,57.13,2.25,100.59,3.23,120.59-10.05,25.37-28.28,41.93-27.31,121.44-20.97,28.77-59.51,75.6-69.75,158.52-10.24,82.91-33.84,175.75-43.89,202.89-2.44,6.59-11.95,18.53-16.83,19.51-4.88.97-48.53,18.87-60.24,39.03s-11.71,23.57-15.93,27.96-21.63,15.6-24.87,19.01c-3.25,3.43-5.53,16.27,3.57,18.37,9.11,2.12,33.45-3.16,41.37-20.97,9.51-6.21,11.83-6.33,11.83-6.33,0,0,3.21,9.75,2.72,17.56-.48,7.8-16.49,31.69-22.84,45.84-6.33,14.15-25.36,40.24-20.24,47.56,5.12,7.31,12.44,6.09,15.61,3.65,3.16-2.44,21.21-33.04,24.75-38.41,4.03-5.24,19.15-24.75,21.83-27.67-4.31,17.8-11.29,38.77-14.07,47.05-2.76,8.29-15.65,33.27-15.76,41.79-.17,11.87,8.03,14.49,13.49,10.89,15.28-10.08,23.85-35.91,27.64-43.4,6.39-12.71,13.32-35.28,19.83-45.69-1.63,12.68-5.59,30.16-7.72,44.96-1.08,7.48-7.64,46,.73,48.52,12.92,3.91,14.63-10.97,19.75-28.53,5.12-17.55,11.47-60.96,15.37-67.55,5.85,1.23,4.97,5.36,6.09,17.07,1.47,15.4.24,53.65,11.45,53.65s12.04-38.53,13.49-61.93c1.47-23.41,9.11-35.77,13.01-54.96s12.99-45.83,12.36-68.28c-.29-10.43-4.72-19.67,4.23-53,5.48-20.45,74.45-155.43,82.21-168.11,8.4-13.73,24.11-54.63,28.01-85.84,3.89-31.21,3.25-32.52,5.2-47.48,1.95-14.95,8-21.55,15.61-30.56,8.77-10.4,21.45-41.29,31.21-83.4,4.55-.16,5.95-3.92,8.12-2.44,0,0,5.85,66.65,17.89,85.19,12.03,18.53,8.45,25.36,11.05,32.2,2.6,6.83,1.29,51.37-.65,76.08-1.95,24.71-7.64,110.88-13,131.36-5.37,20.49-12.04,29.27-17.24,55.28s-13.49,60.07-15.28,92.01c0,0-10.93,75.84-9.92,104.39,1.08,30.57-6.83,238.49,37.07,289.23-2.11,9.91-.16,27.15.16,32.35.33,5.2-12.35,59.19-7.48,95.28,4.88,36.08,2.93,23.57,1.96,32.59-.97,9.03-40,129.99,18.53,352.72,3.49,13.31,4.88,40.16,4.88,54.31s-4.88,41.93-4.88,55.11-.49,19.51,2.44,27.8c2.92,8.29,2.44,21.95.48,32.19-1.95,10.25-41.45,38.05-44.87,53.17s-7.8,23.89-1.47,28.28c6.35,4.4,9.27,0,9.27,0,0,0-2.44,7.32,1.47,11.23,3.91,3.89,15.61,3.41,15.61,3.41,0,0,3.89.97,6.33,4.87,2.44,3.91,12.68,5.85,15.12,3.43,2.44-2.44,3.91-2.24,5.85,1.07,1.05,1.8,5.39,3.91,9.15,5.45,3.61,1.51,7.72,1.17,11.05-.88l7.6-4.67s6.35,7.31,7.8,7.8c1.47.49,16.59,5.85,20.49,0,3.89-5.85,22.43-20,21.45-36.59-.97-16.57-2.44-25.84-1.95-31.69.48-5.85,1.95-14.64,4.39-23.41,2.44-8.79,5.37-12.68,3.41-29.27-1.95-16.59-.48-17.56-.48-20.48s2.44-10.73,2.92-19.51c.49-8.79-6.33-26.83-6.33-26.83,0,0-2.93-17.56-4.4-41.47-1.45-23.89,3.41-118.03,13.17-149.24s15.48-40.99,16.59-48.77c11.71-82.43-7.31-171.19-10.73-202.57-1.95-17.88,5.85-19.84,10.73-37.88,4.88-18.05,8.77-62.92,3.41-82.92-3.93-14.67,13.65-68.28,16.09-84.87s35.93-144.85,37.72-167.77c1.79-22.93,4.07-94.03-1.95-104.76,2.85,0,11.07,5.69,14.56,6.69.16.12.41.15.71.12.31.03.56,0,.71-.12,3.51-1,11.71-6.69,14.57-6.69-6.01,10.73-3.73,81.83-1.95,104.76,1.79,22.92,35.28,151.19,37.72,167.77,2.44,16.59,20.03,70.2,16.09,84.87-5.37,20-1.47,64.87,3.41,82.92,4.88,18.04,12.68,20,10.73,37.88-3.43,31.39-22.44,120.15-10.73,202.57,1.11,7.79,6.83,17.56,16.59,48.77,9.75,31.21,14.63,125.35,13.16,149.24-1.47,23.91-4.39,41.47-4.39,41.47,0,0-6.83,18.04-6.35,26.83.49,8.77,2.93,16.57,2.93,19.51s1.47,3.89-.49,20.48c-1.95,16.59.99,20.48,3.41,29.27,2.44,8.77,3.91,17.56,4.4,23.41.48,5.85-.99,15.12-1.96,31.69-.97,16.59,17.56,30.73,21.47,36.59,3.89,5.85,19.01.49,20.48,0s7.8-7.8,7.8-7.8l7.61,4.67c3.32,2.05,7.43,2.39,11.04.88,3.76-1.55,8.09-3.65,9.16-5.45,1.95-3.31,3.41-3.51,5.85-1.07,2.43,2.43,12.68.48,15.12-3.43,2.43-3.89,6.33-4.87,6.33-4.87,0,0,11.71.48,15.61-3.41,3.89-3.91,1.45-11.23,1.45-11.23,0,0,2.93,4.4,9.27,0,6.35-4.39,1.96-13.16-1.45-28.28s-42.92-42.92-44.88-53.17c-1.95-10.24-2.44-23.89.49-32.19,2.92-8.29,2.44-14.63,2.44-27.8s-4.88-40.97-4.88-55.11,1.37-41,4.88-54.31c58.52-222.73,19.51-343.69,18.53-352.72-.97-9.01-2.93,3.49,1.95-32.59,4.88-36.09-7.8-90.08-7.48-95.28.33-5.2,2.28-22.44.16-32.35,43.91-50.73,35.99-258.65,37.07-289.23,1.01-28.55-9.91-104.39-9.91-104.39-1.79-31.95-10.08-66-15.28-92.01-5.21-26.01-11.88-34.79-17.24-55.28-5.36-20.48-11.05-106.65-13-131.36-1.96-24.71-3.25-69.25-.65-76.08,2.6-6.84-.97-13.67,11.05-32.2,12.03-18.53,17.88-85.19,17.88-85.19,2.19-1.48,3.57,2.28,8.13,2.44,9.75,42.11,22.44,73,31.21,83.4,7.61,9.01,13.65,15.61,15.61,30.56,1.95,14.96,1.29,16.27,5.2,47.48,3.89,31.21,19.6,72.11,28.01,85.84,7.75,12.68,76.72,147.65,82.21,168.11,8.93,33.33,4.52,42.57,4.23,53-.64,22.45,8.45,49.09,12.36,68.28,3.89,19.19,11.53,31.55,13,54.96,1.47,23.4,2.28,61.93,13.49,61.93s9.99-38.25,11.47-53.65c1.12-11.71.24-15.84,6.09-17.07,3.91,6.59,10.24,50,15.36,67.55,5.12,17.56,6.83,32.44,19.76,28.53,8.36-2.52,1.8-41.04.73-48.52-2.13-14.8-6.11-32.28-7.73-44.96,6.51,10.41,13.45,32.99,19.84,45.69,3.77,7.49,12.36,33.32,27.64,43.4,5.47,3.6,13.65.97,13.49-10.89-.12-8.52-13-33.49-15.77-41.79-2.76-8.28-9.75-29.25-14.07-47.05,2.69,2.92,17.81,22.43,21.83,27.67,3.55,5.37,21.59,35.97,24.76,38.41,3.17,2.44,10.48,3.65,15.61-3.65,5.12-7.32-13.91-33.41-20.25-47.56-6.33-14.15-22.35-38.04-22.84-45.84-.48-7.81,2.72-17.56,2.72-17.56,0,0,2.32.12,11.84,6.33,7.92,17.81,32.27,23.09,41.37,20.97,9.11-2.11,6.83-14.95,3.57-18.37"/>
      <path id="path18" class="cls-2" d="M1687.64,2247.59c9.76,0,101.45-1.95,104.71,5.85,3.25,7.81,13.91,26.67-5.73,26.67s-73.61-9.11-83.36-13c-9.76-3.91-21.47-13.67-21.47-13.67l5.85-5.85"/>
      <path id="glutes" class="cls-2" d="M1782.98,1008.41c-35.43,21.15-55.37,36.09-67.37,55.61-11.99,19.51-9.75,54.61,6.51,89.73,16.27,35.12,50.08,74.47,67.64,74.47s46.33,22.31,76.08,10.89c25.84-9.91,15.83-27.76,18.47-51.11,3.69-32.56,11.77-30.67,16.16-107.89,1.07-18.6-3.16-49.59-8.36-60-5.21-10.4-15.87-23.73-20.41-29.59s-7.48-18.71-45.52-1.95c-15.76,6.93-20.52,6.31-43.19,19.83"/>
      <path id="back" class="cls-2" d="M1755.6,366.56c17.56,18.53,37.44,91.39,48.77,129.73,13.07,44.2,22.49,71.44,56.57,126.81,22.92,37.24,21.47,61.45,26.35,57.56,6.83-75.12,22.43-279.96-3.91-301.43s-35.12-17.56-64.39-21.47c-29.25-3.89-63.4,8.79-63.4,8.79"/>
      <path id="back-2" data-name="back" class="cls-2" d="M1690.42,435.16c20.56-11.35,41.91-21.32,63.79-29.83,2.35-.92,4.8-1.83,7.29-1.6,11.49,1.07,16.53,36.76,18.6,45.01,6.63,26.4,13.11,52.81,21.36,78.76,10.04,31.61-36.67,4.89-45.85,0-14.96-7.95-29.36-13.88-41.75-26.07-14.88-14.63-22.27-33.99-30.75-52.6-2.85-6.27-4.07-7.21,2.21-10.81,1.69-.97,3.39-1.92,5.09-2.87"/>
      <path id="shoulders" class="cls-2" d="M1710.86,394.51c-6.48-4.16-15.48-9.12-16.8-9.57-9.81-3.36-20.6-3.96-30.79-2.23-16.71,2.85-33.81,16.79-46.28,27.75-8.09,7.11-15.68,19.75-19.65,29.75-6.12,15.48-3.79,28.49-3.75,44.73.04,19.2.07,38.4.11,57.6,0,.16,20.11-8.05,21.97-9.11,10.45-5.84,19.68-13.48,28.51-21.52,7.72-7.03,18.11-16.61,18.11-27.97,0-17.09,4.01-34.36,13.28-48.89,10.41-16.33,27.59-22.89,41.99-34.89.69-.57-2.47-2.93-6.69-5.64"/>
      <path id="back1" class="cls-2" d="M1689.64,488.31c.48,1.01.91,1.85,1.28,2.4,6.23,9.17,14.21,17.07,22.96,23.84,15.79,12.21,35,24.68,54.89,27.92,11.45,1.87,15.48,3.21,18.53,4.92,3.04,1.71-2.68,6.83-2.68,7.44s-17.64,10.08-36.51,12.36c-28.03,3.37-56.55-8.95-69.36-34.83-4.84-9.8-7.27-20.65-7.81-31.53-.47-9-2.31-19.16,3.81-26.81,6.04-7.55,11.67,7.51,14.88,14.29"/>
      <path id="triceps" class="cls-2" d="M1659.03,511.91c-65.99,46.81-65.03,76.73-59.17,115.11,5.32,34.92,21.07-2.85,31.63-10.63,7.68-5.65,15.48-11.08,23.04-16.92,2.48-1.91,17.15-10.92,16.64-14.73-.43-3.24-12.13-72.83-12.13-72.83"/>
      <path id="triceps1" class="cls-2" d="M1668.79,598.72c-13.27,11.11-26.31,22.56-38.65,34.67-12.39,12.13-14.97,20.91-15.2,38.6-.31,25.53-7.95,50.13-11.76,75.21-1.95,12.72-2.96,25.69-1.29,38.52,1.95,15.11,4.85,7.8,11.6.45,3.4-3.71,6.76-7.48,9.89-11.43,9.65-12.19,9.81-22.75,11.76-38,2.13-16.71,14.93-22.8,22.43-38.04,4.69-9.52,7.27-30.05,11.95-39.57,9.73-19.79,12.37-42.4,5.61-63.33l-6.33,2.92"/>
      <path id="back2" class="cls-2" d="M1811.86,548.32c10.4,19.23,32.52,72.56,40.32,87.52,7.8,14.95,19.51,20.8,16.91,36.41-2.6,15.6-23.55,72.47-32.52,91.32-8.96,18.87-22.11,57.23-29.27,74.51-7.63,18.44-14.31,38.37-17.55,48.12-2.64,7.91-27.87-28.12-37.37-42.11-2.37-3.49-3.99-7.4-4.75-11.55-2.6-14.12-9.13-50.15-14.47-83.56-3.09-19.36-9.11-27.31-14.31-70.23s-2.6-35.77-15.6-57.88c-13.01-22.11-16.27-50.73-13.65-51.37,17.55,13,36.25,12.71,49.12,14.95,3.49.61,14.43,2.19,27.61-2.24,21.87-7.35,25.23-11.07,29.77-19.52,4.56-8.45,15.75-14.37,15.75-14.37"/>
      <path id="lombar" class="cls-2" d="M1748.07,856.47c1.8.53,3.43,1.76,5.11,3.63,6.89,7.69,13.27,15.83,19.11,24.33,5.48,8,12.88,17.44,15.03,27.09,1.72,7.76-21.57,18.2-26.37,21.29-11.75,7.55-21.8,16.6-28.92,28.76-4.25,7.24-5.72,3.07-6.65-2.91-2.79-17.91-4.95-36.81-3.43-55.24,1.29-15.53,3.55-39.83,19.91-46.36,2.39-.95,4.4-1.13,6.23-.6"/>
      <path id="adductors" class="cls-2" d="M1823.07,1258.79c11.71,10.41,44.41,67.99,34.01,123.91-10.4,55.93,16.15-35.8,22.08-71.72,4.69-28.39,7.61-50.07,2.28-54.79-8.39-7.4-58.37,2.6-58.37,2.6"/>
      <path id="hamstrings" class="cls-2" d="M1682.44,1192.79c-3.91,25.36,5.2,217.2,20.16,275.08s11.56,22.76,8.39-5.85c-3.19-28.61,5.92-102.09,7.23-128.11,1.29-26.01-3.91-90.4-14.96-118.36s-9.11-29.27-15.61-39.03c-6.51-9.75-5.2,16.27-5.2,16.27"/>
      <path id="hamstrings1" class="cls-2" d="M1722.44,1549.8c-6.81,33.12-10.7,91.69-13.99,94.31,28.23-29.92,59.59-140.05,66.97-176.89,7.27-36.39,7.38-156.16,10.66-175.67s-.26-18.07-3.3-28.53c-4.44-15.2-22.49-39.89-31.77-49.09-35.46-35.12-7.77,234.75-28.58,335.88"/>
      <path id="path44" class="cls-2" d="M1847.62,1383.32c0,34.47-31.21,124.21-29.25,164.53,1.95,40.32-6.21,110.56-7.51,116.41,13.65-31.87,20.15-100.8,20.8-134.63.65-33.81,23.12-92.33,20.52-111.85-2.6-19.51-4.56-34.47-4.56-34.47"/>
      <path id="calves-2" data-name="calves" class="cls-2" d="M1735.12,1630.77c-52.68,61.45-39.52,212-30.73,251.99,8.77,40,9.92,47.01,28.33,46.76,7.23-.09,23.53-10.33,20.6-43.51-2.92-33.16.65-125.09.65-161.92,0-21.47,5.85-126.03,5.85-126.03l-24.71,32.71"/>
      <path id="calves1" class="cls-2" d="M1769.38,1674.01c7.28,76.09,1.51,170.97,0,199.65-1.45,27.31-2.83,53.27,10.19,55.87,13,2.6,44.32-38.8,50.17-76.84,4.65-30.24-3.49-94.77-8.77-123.4-7.49-40.56-16.83-55.28-26.95-76.09-10.12-20.8-19.72-44.21-21.43-53.97-1.71-9.75-3.21,74.79-3.21,74.79"/>
      <path id="path50" class="cls-2" d="M1739.36,2151.84c7.15,31.85,5.47,46.24,19.19,49.09,25.03,5.2,29.91-14.96,31.21-30.56,1.29-15.61,8.45-22.12,8.45-22.12,0,0-.24,57.89-3.25,72.19-2.6,12.36-2.48,19.81-15.81,19.81-18.76,0-32.16,3.11-41.41.03-10.47-3.49-6.36-47.04-7.8-67.31-1.67-23.41-2.77-28.12-1.47-33.97,1.31-5.85,10.89,12.84,10.89,12.84"/>
      <path id="calves-3" data-name="calves" class="cls-2" d="M1735.64,1948.79c8.84.23,16.19,6.95,17.28,15.72,6.29,50.47,11.32,175.41,10.16,183.59-1.31,9.11-5.72,51.95-9.76,32.36-11.87-57.56-18.93-141.04-26.01-175.59-6.83-33.33-18.85-41.47-5.85-51.87,6.64-5.31,5.47-4.44,14.19-4.21"/>
      <path id="path54" class="cls-2" d="M1774.11,1955.6c-10.85,12.36.69,229.93,2.63,230.08,1.95.13,7.16-70.11,16.91-110.41,9.76-40.33,10.12-106.49,10.08-106.65-3.92-15.6-21.45-18.6-29.61-13.01"/>
      <path id="hamstrings2" class="cls-2" d="M1798.92,1287.19c-6.16,26.56-30.69,313.33-6.16,345.21,10.41-17.56,18.04-171.04,41.79-232.81,12.33-32.08-.97-73.81-6.76-95.92-1.88-7.17-20.49-37.4-20.49-37.4l-8.37,20.92"/>
      <path id="brachialis" class="cls-2" d="M1583.43,618.23c-8.45,23.36-23.89,100.48-16.75,133.65,1.68,7.77,7.77,24.56,13.25,8.75,8.61-24.85,19.47-49.83,25.55-75.45,4.01-16.87-11.81-45.97-22.05-66.95"/>
      <path id="path60" class="cls-2" d="M1554.79,773.28c.79,8.6,2.24,17.12,2.4,25.85.31,16.75-5.35,51.65,10.55,63.59,14.08-13.32,19.75-36.83,18.67-55.57-.63-10.75-10.76-17.88-17.37-25.65-5.01-5.89-9.92-11.87-14.73-17.92,0,3.27.2,6.49.49,9.71"/>
      <path id="forearms" class="cls-2" d="M1527.67,792.19c-5.2,43.57-29.92,240.29-46.17,282.56-1.31,20.16,61.21-103.64,68.52-144.85,5.8-32.68-4.13-96.08-11.29-111.69-7.16-15.6-11.05-26.01-11.05-26.01"/>
      <path id="forearms1" class="cls-2" d="M1595.63,834.45c-6.19,4.88-9.67,12.89-9.96,13.67-29.29,76.43-41.23,135.49-76.21,203.21-2.33,4.53-6.87,17.2-12.36,18.85,19.52-5.85,49.76-89.89,88.16-156.91,8.35-14.55,31.83-72.96,33.79-80.77,1.47-5.91-18.25-2.12-23.41,1.95"/>
      <path id="forearms2" class="cls-2" d="M1505.07,834.13c-9.76,40.32-22.61,166-51.23,240.61,23.41-15.6,37.73-71.2,41.64-93.96,8.27-48.23,14.87-101.36,18.16-150.11.32-4.81.45-13.52-5.29-15.01-2.77,5.47-2.37,12.45-3.28,18.47"/>
      <path id="abductors" class="cls-2" d="M1835.27,963.23c-10.41-5.85-59.71-20.83-79.35-9.76-17.88,10.08-43.56,68.13-42.27,88.12,21.27-13.01,62.6-47,81.45-54.63s47.96-15.28,47.96-15.28l-7.8-8.45"/>
      <path id="lombar1" class="cls-2" d="M1878.19,707.65c-2.53-5.23-6.51,9.09-14.31,22.76-7.8,13.65-35.12,78.68-40.32,92.99-2.52,6.95-40.64,98.69-29.43,106,32.56,21.24,89.25,57.56,89.25,57.56,16.91-66.01,5.85-256.55-5.2-279.31"/>
      <path id="trapezius" class="cls-2" d="M1859.74,218.47c-1.96,3.69-1.33,8.87-1.05,13.64.63,10.69-2.09,23.77-3.59,34.47-1.93,13.89-8.4,32.17-15.12,44.39-6.07,11.04-12.97,11.09-23.73,17.95-6.48,4.11-9.36,4.27-15.88,8.31-1.43.89-8.63,5.03-7.89,7.04.65,1.83,11.05,2.11,12.97,2.32,19.12,2.12,38.4,1.44,57.59.75,5.79-.2,11.56-.4,17.35-.61,2.52-.09,5.19-.23,7.28-1.63,3.65-2.44,4.09-7.53,4.16-11.92.64-37.45,1.28-69.49,1.92-106.95.05-3.21,0-6.75-2.12-9.16-1.39-1.57-3.43-2.39-5.43-2.97-6.75-1.96-14.04-1.95-20.77.04-2.91.85-4.65,2.4-5.68,4.35"/>
      <path id="path74" class="cls-2" d="M1454.59,1085.81c2.69-.47,5.4-.59,8.12-.27,15.49,1.83,42.48,4.96,48.64,22.48.71,2.03.77,4.23.79,6.39.21,22.84-2.57,45.75-8.45,67.83-1.09,4.15-2.39,8.33-4.84,11.85-13.87,19.85-51.25,6.35-66.89-3.55-14.13-8.95-35.37-22.8-36.36-40.97-.87-16.16,8.8-33.51,21.81-42.73,10.65-7.55,23.64-18.68,37.19-21.03"/>
      <path id="path76" class="cls-2" d="M1477.19,1211.97c-.19,10.33-.33,20.67-.27,31,.07,6.65.27,13.31.93,19.92.55,5.51.68,15.71,4.16,20.04,2.07,2.59,7.88-13.29,8.08-14.25.89-4.51.73-60.49,3.17-60.79-5.43.64-10.92,2.28-16.08,4.08"/>
      <path id="path78" class="cls-2" d="M1444.8,1211.13c-4.29,18.04-5.8,36.92-8.87,55.21-1,5.99-2,11.97-2.93,17.96-1.24,7.95-2.59,14.49-1.71,22.65.08.76.2,1.56.69,2.15,2.25,2.69,7.63-.05,9.28-2.11,1.83-2.25,2.56-5.19,3.03-8.05,1.29-7.99,3.19-15.85,4.8-23.79,2.44-12.01,4.75-24.07,7.17-36.08,1.49-7.39,2.99-14.77,4.48-22.16.19-.89.35-1.87-.04-2.69-.81-1.69-15.85-3.28-15.91-3.09"/>
      <path id="path80" class="cls-2" d="M1416.23,1203.12c-2.59,2.69-4.33,12.53-5.15,14.99-2.24,6.72-4.63,13.39-7.08,20.03-4.83,13.04-9.95,25.97-14.88,38.97-3.29,8.67-7.61,17.04-7.49,26.55.05,5.08,6.35,2.57,9,1.32,8.52-4.04,9.6-10.73,12.8-18.63,2.48-6.09,5.01-12.17,7.56-18.25,7.92-18.81,15.95-37.56,24.97-55.89.35-.68.68-1.39.76-2.13.69-6.75-15.16-7.47-19.13-7.61-.48-.03-.93.23-1.36.67"/>
      <path id="path82" class="cls-2" d="M1393.74,1182.27c-4.6,3.85-14.29,25.77-15.99,28.91-4.87,8.99-9.72,17.99-14.57,27-3.92,7.27-11.6,16.8-12.51,25.17-.27,2.07-2.17,13.43,2.88,11.12.76-.35,1.33-.99,1.88-1.6,13.33-15.12,23.71-31.89,35.15-48.39,3.36-4.84,6.56-9.8,10.12-14.49,3.07-4.04,8.31-7.8,10.73-12.13,1.04-1.88.92-4.17.76-6.32-.05-.76-.12-1.57-.53-2.23-.37-.61-1-1.01-1.6-1.39-4.63-2.83-9.69-4.93-14.96-6.21-.37-.09-.84.12-1.36.56"/>
      <path id="path84" class="cls-2" d="M1390.02,1114.75c-8.13,7.8-21.45,23.04-26.99,34.6-5.53,11.57-29.27,16.12-29.59,23.28-.33,7.15-1.96,11.71,1.29,12.03s15.61.97,23.09-5.85c7.48-6.83,13-10.73,17.88-17.56s9.11-14.96,11.39-25.68c2.27-10.73,8.77-25.69,8.77-25.69l-5.85,4.88"/>
      <path id="path86" class="cls-2" d="M2125.16,2247.59c-9.76,0-101.45-1.95-104.71,5.85-3.24,7.81-13.91,26.67,5.73,26.67s73.61-9.11,83.36-13c9.76-3.91,21.47-13.67,21.47-13.67l-5.85-5.85"/>
      <path id="glutes1" class="cls-2" d="M2027.54,1008.41c35.43,21.15,55.37,36.09,67.37,55.61,11.99,19.51,9.75,54.61-6.51,89.73-16.25,35.12-50.08,74.47-67.64,74.47s-46.33,22.31-76.08,10.89c-25.84-9.91-15.83-27.76-18.47-51.11-3.69-32.56-11.77-30.67-16.16-107.89-1.07-18.6,3.16-49.59,8.37-60,5.2-10.4,15.85-23.73,20.4-29.59s7.48-18.71,45.52-1.95c15.76,6.93,20.52,6.31,43.19,19.83"/>
      <path id="back-3" data-name="back" class="cls-2" d="M2054.91,366.56c-17.56,18.53-37.44,91.39-48.77,129.73-13.07,44.2-22.49,71.44-56.57,126.81-22.92,37.24-21.47,61.45-26.35,57.56-6.83-75.12-22.43-279.96,3.91-301.43s35.12-17.56,64.39-21.47c29.25-3.89,63.4,8.79,63.4,8.79"/>
      <path id="back4" class="cls-2" d="M2120.1,435.16c-20.56-11.35-41.91-21.32-63.79-29.83-2.35-.92-4.8-1.83-7.29-1.6-11.49,1.07-16.53,36.76-18.6,45.01-6.63,26.4-13.09,52.81-21.35,78.76-10.05,31.61,36.65,4.89,45.84,0,14.96-7.95,29.36-13.88,41.75-26.07,14.88-14.63,22.27-33.99,30.75-52.6,2.87-6.27,4.07-7.21-2.21-10.81-1.69-.97-3.39-1.92-5.09-2.87"/>
      <path id="shoulders1" class="cls-2" d="M2099.66,394.51c6.49-4.16,15.48-9.12,16.8-9.57,9.81-3.36,20.6-3.96,30.79-2.23,16.71,2.85,33.81,16.79,46.29,27.75,8.08,7.11,15.67,19.75,19.64,29.75,6.12,15.48,3.79,28.49,3.75,44.73-.04,19.2-.07,38.4-.11,57.6,0,.16-20.11-8.05-21.97-9.11-10.45-5.84-19.68-13.48-28.51-21.52-7.72-7.03-18.11-16.61-18.11-27.97,0-17.09-4.01-34.36-13.28-48.89-10.41-16.33-27.59-22.89-41.99-34.89-.69-.57,2.47-2.93,6.69-5.64"/>
      <path id="back5" class="cls-2" d="M2120.87,488.31c-.48,1.01-.91,1.85-1.28,2.4-6.21,9.17-14.21,17.07-22.96,23.84-15.79,12.21-35,24.68-54.89,27.92-11.45,1.87-15.48,3.21-18.53,4.92-3.04,1.71,2.69,6.83,2.69,7.44s17.64,10.08,36.49,12.36c28.04,3.37,56.55-8.95,69.36-34.83,4.84-9.8,7.27-20.65,7.81-31.53.47-9,2.31-19.16-3.81-26.81-6.04-7.55-11.67,7.51-14.88,14.29"/>
      <path id="triceps2" class="cls-2" d="M2151.48,511.91c65.99,46.81,65.03,76.73,59.17,115.11-5.32,34.92-21.07-2.85-31.63-10.63-7.68-5.65-15.48-11.08-23.04-16.92-2.48-1.91-17.15-10.92-16.64-14.73.43-3.24,12.13-72.83,12.13-72.83"/>
      <path id="triceps3" class="cls-2" d="M2141.74,598.72c13.25,11.11,26.29,22.56,38.64,34.67,12.39,12.13,14.97,20.91,15.2,38.6.31,25.53,7.96,50.13,11.76,75.21,1.95,12.72,2.96,25.69,1.29,38.52-1.95,15.11-4.85,7.8-11.59.45-3.41-3.71-6.77-7.48-9.89-11.43-9.67-12.19-9.83-22.75-11.77-38-2.12-16.71-14.93-22.8-22.43-38.04-4.69-9.52-7.27-30.05-11.95-39.57-9.73-19.79-12.37-42.4-5.61-63.33,0,0,6.33,2.92,6.35,2.92"/>
      <path id="back6" class="cls-2" d="M1998.66,548.32c-10.4,19.23-32.51,72.56-40.32,87.52-7.8,14.95-19.51,20.8-16.91,36.41,2.6,15.6,23.55,72.47,32.52,91.32,8.96,18.87,22.11,57.23,29.27,74.51,7.63,18.44,14.31,38.37,17.55,48.12,2.64,7.91,27.87-28.12,37.37-42.11,2.37-3.49,3.99-7.4,4.75-11.55,2.6-14.12,9.13-50.15,14.47-83.56,3.09-19.36,9.11-27.31,14.31-70.23s2.6-35.77,15.6-57.88c13.01-22.11,16.27-50.73,13.67-51.37-17.56,13-36.27,12.71-49.13,14.95-3.49.61-14.43,2.19-27.61-2.24-21.87-7.35-25.23-11.07-29.77-19.52-4.56-8.45-15.75-14.37-15.75-14.37"/>
      <path id="lombar2" class="cls-2" d="M2062.44,856.47c-1.8.53-3.43,1.76-5.11,3.63-6.89,7.69-13.27,15.83-19.11,24.33-5.48,8-12.88,17.44-15.03,27.09-1.72,7.76,21.57,18.2,26.37,21.29,11.76,7.55,21.8,16.6,28.92,28.76,4.25,7.24,5.72,3.07,6.65-2.91,2.79-17.91,4.95-36.81,3.43-55.24-1.29-15.53-3.55-39.83-19.91-46.36-2.39-.95-4.4-1.13-6.23-.6"/>
      <path id="adductors1" class="cls-2" d="M1987.44,1258.79c-11.71,10.41-44.41,67.99-34.01,123.91,10.4,55.93-16.15-35.8-22.08-71.72-4.69-28.39-7.61-50.07-2.28-54.79,8.39-7.4,58.37,2.6,58.37,2.6"/>
      <path id="hamstrings3" class="cls-2" d="M2128.07,1192.79c3.91,25.36-5.2,217.2-20.16,275.08s-11.56,22.76-8.39-5.85c3.19-28.61-5.92-102.09-7.21-128.11-1.31-26.01,3.89-90.4,14.95-118.36,11.07-27.96,9.11-29.27,15.61-39.03,6.51-9.75,5.2,16.27,5.2,16.27"/>
      <path id="hamstrings4" class="cls-2" d="M2088.2,1549.8c6.75,33.12,10.6,91.69,13.85,94.31-27.96-29.92-59.03-140.05-66.33-176.89-7.2-36.39-7.31-156.16-10.56-175.67s.25-18.07,3.27-28.53c4.4-15.2,22.28-39.89,31.48-49.09,35.11-35.12,7.68,234.75,28.29,335.88"/>
      <path id="path112" class="cls-2" d="M1962.9,1383.32c0,34.47,31.21,124.21,29.25,164.53-1.95,40.32,6.21,110.56,7.51,116.41-13.65-31.87-20.15-100.8-20.8-134.63-.64-33.81-23.12-92.33-20.52-111.85,2.6-19.51,4.56-34.47,4.56-34.47"/>
      <path id="calves2" class="cls-2" d="M2075.39,1630.77c52.68,61.45,39.52,212,30.73,251.99-8.77,40-9.92,47.01-28.33,46.76-7.23-.09-23.53-10.33-20.6-43.51,2.92-33.16-.65-125.09-.65-161.92,0-21.47-5.85-126.03-5.85-126.03l24.71,32.71"/>
      <path id="calves3" class="cls-2" d="M2041.14,1674.01c-7.28,76.09-1.51,170.97,0,199.65,1.45,27.31,2.83,53.27-10.19,55.87-13,2.6-44.32-38.8-50.17-76.84-4.65-30.24,3.49-94.77,8.77-123.4,7.49-40.56,16.83-55.28,26.95-76.09,10.12-20.8,19.72-44.21,21.43-53.97,1.71-9.75,3.21,74.79,3.21,74.79"/>
      <path id="path118" class="cls-2" d="M2071.15,2151.84c-7.15,31.85-5.47,46.24-19.17,49.09-25.04,5.2-29.92-14.96-31.23-30.56-1.29-15.61-8.45-22.12-8.45-22.12,0,0,.24,57.89,3.25,72.19,2.6,12.36,2.48,19.81,15.81,19.81,18.76,0,32.17,3.11,41.41.03,10.47-3.49,6.36-47.04,7.81-67.31,1.67-23.41,2.76-28.12,1.45-33.97-1.31-5.85-10.89,12.84-10.89,12.84"/>
      <path id="calves-4" data-name="calves" class="cls-2" d="M2074.87,1948.79c-8.84.23-16.19,6.95-17.28,15.72-6.29,50.47-11.32,175.41-10.16,183.59,1.31,9.11,5.72,51.95,9.76,32.36,11.87-57.56,18.93-141.04,26.01-175.59,6.83-33.33,18.85-41.47,5.85-51.87-6.64-5.31-5.47-4.44-14.19-4.21"/>
      <path id="calves-5" data-name="calves" class="cls-2" d="M2036.4,1955.6c10.87,12.36-.69,229.93-2.63,230.08-1.95.13-7.16-70.11-16.91-110.41-9.76-40.33-10.12-106.49-10.08-106.65,3.92-15.6,21.45-18.6,29.61-13.01"/>
      <path id="hamstrings5" class="cls-2" d="M2011.6,1287.19c6.15,26.56,30.68,313.33,6.15,345.21-10.41-17.56-18.04-171.04-41.79-232.81-12.33-32.08.97-73.81,6.76-95.92,1.88-7.17,20.49-37.4,20.49-37.4l8.39,20.92"/>
      <path id="brachialis1" class="cls-2" d="M2227.08,618.23c8.45,23.36,23.89,100.48,16.75,133.65-1.68,7.77-7.77,24.56-13.24,8.75-8.61-24.85-19.48-49.83-25.56-75.45-4.01-16.87,11.81-45.97,22.05-66.95"/>
      <path id="path128" class="cls-2" d="M2255.72,773.28c-.79,8.6-2.24,17.12-2.4,25.85-.31,16.75,5.35,51.65-10.55,63.59-14.08-13.32-19.75-36.83-18.67-55.57.63-10.75,10.76-17.88,17.37-25.65,5.01-5.89,9.92-11.87,14.73-17.92,0,3.27-.2,6.49-.49,9.71"/>
      <path id="forearms3" class="cls-2" d="M2282.84,792.19c5.2,43.57,29.92,240.29,46.17,282.56,1.31,20.16-61.21-103.64-68.52-144.85-5.8-32.68,4.15-96.08,11.29-111.69,7.16-15.6,11.05-26.01,11.05-26.01"/>
      <path id="forearms4" class="cls-2" d="M2214.88,834.45c6.19,4.88,9.67,12.89,9.96,13.67,29.29,76.43,41.23,135.49,76.21,203.21,2.33,4.53,6.87,17.2,12.36,18.85-19.52-5.85-49.76-89.89-88.16-156.91-8.35-14.55-31.83-72.96-33.77-80.77-1.48-5.91,18.24-2.12,23.4,1.95"/>
      <path id="forearms5" class="cls-2" d="M2305.44,834.13c9.76,40.32,22.61,166,51.23,240.61-23.41-15.6-37.73-71.2-41.63-93.96-8.28-48.23-14.88-101.36-18.17-150.11-.32-4.81-.45-13.52,5.29-15.01,2.77,5.47,2.37,12.45,3.28,18.47"/>
      <path id="abductors1" class="cls-2" d="M1975.24,963.23c10.41-5.85,59.71-20.83,79.35-9.76,17.88,10.08,43.56,68.13,42.27,88.12-21.27-13.01-62.59-47-81.45-54.63-18.85-7.63-47.96-15.28-47.96-15.28l7.8-8.45"/>
      <path id="lombar3" class="cls-2" d="M1932.32,707.65c2.55-5.23,6.51,9.09,14.31,22.76,7.81,13.65,35.12,78.68,40.32,92.99,2.52,6.95,40.65,98.69,29.43,106-32.56,21.24-89.25,57.56-89.25,57.56-16.91-66.01-5.85-256.55,5.2-279.31"/>
      <path id="trapezius1" class="cls-2" d="M1950.78,218.47c1.96,3.69,1.33,8.87,1.05,13.64-.63,10.69,2.09,23.77,3.59,34.47,1.93,13.89,8.4,32.17,15.12,44.39,6.07,11.04,12.97,11.09,23.73,17.95,6.48,4.11,9.36,4.27,15.88,8.31,1.43.89,8.63,5.03,7.89,7.04-.65,1.83-11.05,2.11-12.97,2.32-19.12,2.12-38.4,1.44-57.59.75-5.77-.2-11.56-.4-17.35-.61-2.52-.09-5.19-.23-7.28-1.63-3.65-2.44-4.09-7.53-4.16-11.92-.64-37.45-1.28-69.49-1.92-106.95-.05-3.21,0-6.75,2.12-9.16,1.39-1.57,3.43-2.39,5.43-2.97,6.75-1.96,14.05-1.95,20.77.04,2.91.85,4.65,2.4,5.68,4.35"/>
      <path id="path142" class="cls-2" d="M2355.92,1085.81c-2.69-.47-5.4-.59-8.12-.27-15.49,1.83-42.48,4.96-48.64,22.48-.71,2.03-.76,4.23-.79,6.39-.21,22.84,2.57,45.75,8.45,67.83,1.09,4.15,2.39,8.33,4.84,11.85,13.87,19.85,51.25,6.35,66.91-3.55,14.12-8.95,35.36-22.8,36.35-40.97.87-16.16-8.8-33.51-21.81-42.73-10.65-7.55-23.64-18.68-37.19-21.03"/>
      <path id="path144" class="cls-2" d="M2333.32,1211.97c.19,10.33.33,20.67.27,31-.07,6.65-.27,13.31-.93,19.92-.55,5.51-.68,15.71-4.16,20.04-2.07,2.59-7.88-13.29-8.08-14.25-.89-4.51-.73-60.49-3.17-60.79,5.43.64,10.92,2.28,16.08,4.08"/>
      <path id="path146" class="cls-2" d="M2365.71,1211.13c4.29,18.04,5.8,36.92,8.87,55.21,1,5.99,2.01,11.97,2.93,17.96,1.24,7.95,2.59,14.49,1.71,22.65-.08.76-.2,1.56-.69,2.15-2.25,2.69-7.63-.05-9.28-2.11-1.83-2.25-2.56-5.19-3.03-8.05-1.29-7.99-3.19-15.85-4.8-23.79-2.44-12.01-4.75-24.07-7.17-36.08-1.49-7.39-2.99-14.77-4.48-22.16-.17-.89-.35-1.87.04-2.69.81-1.69,15.85-3.28,15.91-3.09"/>
      <path id="path148" class="cls-2" d="M2394.28,1203.12c2.59,2.69,4.33,12.53,5.15,14.99,2.24,6.72,4.63,13.39,7.08,20.03,4.83,13.04,9.95,25.97,14.88,38.97,3.29,8.67,7.61,17.04,7.49,26.55-.05,5.08-6.35,2.57-9,1.32-8.52-4.04-9.6-10.73-12.8-18.63-2.48-6.09-5.01-12.17-7.56-18.25-7.92-18.81-15.95-37.56-24.97-55.89-.33-.68-.68-1.39-.76-2.13-.69-6.75,15.16-7.47,19.15-7.61.47-.03.92.23,1.35.67"/>
      <path id="path150" class="cls-2" d="M2416.78,1182.27c4.6,3.85,14.29,25.77,15.99,28.91,4.87,8.99,9.72,17.99,14.57,27,3.92,7.27,11.6,16.8,12.51,25.17.27,2.07,2.17,13.43-2.88,11.12-.76-.35-1.33-.99-1.88-1.6-13.33-15.12-23.71-31.89-35.15-48.39-3.36-4.84-6.56-9.8-10.12-14.49-3.05-4.04-8.31-7.8-10.72-12.13-1.05-1.88-.93-4.17-.77-6.32.05-.76.12-1.57.53-2.23.37-.61,1-1.01,1.6-1.39,4.63-2.83,9.69-4.93,14.96-6.21.37-.09.84.12,1.36.56"/>
      <path id="path152" class="cls-2" d="M2420.5,1114.75c8.13,7.8,21.45,23.04,26.99,34.6,5.53,11.57,29.27,16.12,29.59,23.28.33,7.15,1.96,11.71-1.29,12.03-3.25.32-15.61.97-23.09-5.85s-13-10.73-17.88-17.56-9.11-14.96-11.39-25.68c-2.27-10.73-8.77-25.69-8.77-25.69l5.85,4.88"/>
      <path id="Body" class="cls-1" d="M1158.14,1172.37c-3.25-3.41-20.65-14.63-24.87-19.01-4.23-4.39-4.23-7.8-15.93-27.96-11.71-20.16-55.36-38.05-60.24-39.03-4.88-.97-14.39-12.92-16.83-19.51-10.06-27.15-33.65-119.99-43.9-202.89-10.24-82.92-48.77-129.75-69.75-158.52.98-79.51-17.26-96.07-27.31-121.44.98-20,7.92-63.45,3.23-120.59-3.72-45.25-60.29-99.23-95.41-104.11-22.74-3.16-35.28,2.28-64.71,0-29.43-2.27-84.54-51.69-87.47-57.55-2.93-5.85-9.11-54.63-4.55-60.8,4.55-6.19,5.2-.33,9.75-13.01,4.55-12.68,2.1-35.48,2.1-35.48,0,0,1.21-4.87,2.05-1.51.49,1.95,1.46,3.99,3.66,5.12,3.41,1.77,7.65-6.45,12.11-14.23,11.88-20.68,23.01-60.15,6.59-65.11-2.99-.91-7.32,6.83-7.32,6.83,0-3.91,3.9-40-1.95-62.43-4.69-17.97-22.24-35.95-36.09-46.83C624.38,1.02,589.86.07,581.27,0h-1.53c-8.59.07-43.11,1.01-60.03,14.31-13.85,10.88-31.41,28.85-36.09,46.83-5.85,22.43-1.95,58.52-1.95,62.43,0,0-4.33-7.73-7.32-6.83-16.42,4.96-5.3,44.43,6.58,65.11,4.47,7.77,8.71,16,12.11,14.23,2.19-1.13,3.17-3.17,3.66-5.12.84-3.36,2.05,1.51,2.05,1.51,0,0-2.45,22.8,2.1,35.48s5.2,6.83,9.75,13.01c4.55,6.17-1.63,54.95-4.55,60.8s-58.04,55.28-87.47,57.55c-29.43,2.28-41.97-3.16-64.71,0-35.12,4.88-91.69,58.85-95.41,104.11-4.69,57.13,2.25,100.59,3.23,120.59-10.05,25.37-28.29,41.93-27.31,121.44-20.97,28.77-59.5,75.6-69.75,158.52-10.24,82.91-33.84,175.75-43.9,202.89-2.44,6.59-11.95,18.53-16.83,19.51s-48.53,18.87-60.24,39.03c-11.71,20.16-11.71,23.57-15.93,27.96-4.23,4.39-21.62,15.6-24.87,19.01-3.25,3.43-5.53,16.27,3.58,18.37,9.1,2.12,33.45-3.16,41.38-20.97,9.51-6.21,11.83-6.33,11.83-6.33,0,0,3.21,9.75,2.72,17.56-.49,7.8-16.5,31.69-22.84,45.84s-25.36,40.24-20.24,47.56c5.12,7.31,12.44,6.09,15.61,3.65,3.17-2.44,21.22-33.04,24.75-38.41,4.02-5.24,19.14-24.75,21.83-27.67-4.31,17.8-11.3,38.77-14.06,47.05-2.76,8.29-15.65,33.27-15.77,41.79-.16,11.87,8.03,14.49,13.49,10.89,15.28-10.08,23.86-35.91,27.64-43.4,6.39-12.71,13.33-35.28,19.83-45.69-1.63,12.68-5.59,30.16-7.72,44.96-1.08,7.48-7.64,46,.73,48.52,12.93,3.91,14.63-10.97,19.75-28.53,5.12-17.55,11.46-60.96,15.36-67.55,5.85,1.23,4.97,5.36,6.1,17.07,1.47,15.4.24,53.65,11.46,53.65s12.03-38.53,13.49-61.93c1.46-23.41,9.1-35.77,13.01-54.96,3.9-19.19,12.99-45.83,12.36-68.28-.29-10.43-4.71-19.67,4.23-53,5.49-20.45,74.46-155.43,82.22-168.11,8.4-13.73,24.11-54.63,28.01-85.84,3.9-31.21,3.25-32.52,5.2-47.48,1.95-14.95,8-21.55,15.61-30.56,8.78-10.4,21.46-41.29,31.21-83.4,4.55-.16,5.95-3.92,8.13-2.44,0,0,5.85,66.65,17.88,85.19,12.03,18.53,8.45,25.36,11.06,32.2,2.6,6.83,1.3,51.37-.65,76.08s-7.64,110.88-13.01,131.36c-5.37,20.49-12.03,29.27-17.23,55.28s-13.5,60.07-15.28,92.01c0,0-10.93,75.84-9.92,104.39,1.08,30.57-6.83,238.49,37.07,289.23-2.11,9.91-.16,27.15.16,32.35s-12.36,59.19-7.48,95.28c4.88,36.08,2.93,23.57,1.95,32.59-.98,9.03-39.99,129.99,18.53,352.72,3.5,13.31,4.88,40.16,4.88,54.31s-4.88,41.93-4.88,55.11-.49,19.51,2.44,27.8,2.44,21.95.49,32.19c-1.95,10.25-41.46,38.05-44.87,53.17-3.41,15.12-7.8,23.89-1.46,28.28,6.34,4.4,9.27,0,9.27,0,0,0-2.44,7.32,1.46,11.23,3.9,3.89,15.61,3.41,15.61,3.41,0,0,3.9.97,6.34,4.87,2.44,3.91,12.68,5.85,15.12,3.43,2.44-2.44,3.9-2.24,5.85,1.07,1.05,1.8,5.39,3.91,9.15,5.45,3.61,1.51,7.72,1.17,11.05-.88l7.6-4.67s6.34,7.31,7.8,7.8c1.46.49,16.58,5.85,20.49,0,3.9-5.85,22.44-20,21.46-36.59-.97-16.57-2.44-25.84-1.95-31.69.49-5.85,1.95-14.64,4.39-23.41,2.44-8.79,5.36-12.68,3.41-29.27s-.49-17.56-.49-20.48,2.44-10.73,2.93-19.51c.49-8.79-6.34-26.83-6.34-26.83,0,0-2.93-17.56-4.39-41.47-1.46-23.89,3.41-118.03,13.17-149.24,9.75-31.21,15.48-40.99,16.58-48.77,11.71-82.43-7.31-171.19-10.73-202.57-1.95-17.88,5.85-19.84,10.73-37.88,4.88-18.05,8.78-62.92,3.41-82.92-3.94-14.67,13.66-68.28,16.1-84.87s35.93-144.85,37.72-167.77c1.79-22.93,4.07-94.03-1.95-104.76,2.86,0,11.07,5.69,14.57,6.69.15.12.41.15.71.12.3.03.56,0,.71-.12,3.5-1,11.7-6.69,14.57-6.69-6.02,10.73-3.74,81.83-1.95,104.76,1.79,22.92,35.28,151.19,37.72,167.77s20.03,70.2,16.09,84.87c-5.36,20-1.46,64.87,3.41,82.92,4.88,18.04,12.68,20,10.73,37.88-3.43,31.39-22.44,120.15-10.73,202.57,1.11,7.79,6.83,17.56,16.58,48.77,9.76,31.21,14.63,125.35,13.17,149.24-1.46,23.91-4.39,41.47-4.39,41.47,0,0-6.83,18.04-6.34,26.83.49,8.77,2.93,16.57,2.93,19.51s1.46,3.89-.49,20.48.97,20.48,3.41,29.27c2.44,8.77,3.9,17.56,4.39,23.41.49,5.85-.98,15.12-1.95,31.69-.97,16.59,17.56,30.73,21.46,36.59,3.9,5.85,19.02.49,20.49,0s7.8-7.8,7.8-7.8l7.6,4.67c3.33,2.05,7.44,2.39,11.05.88,3.76-1.55,8.1-3.65,9.15-5.45,1.95-3.31,3.41-3.51,5.85-1.07,2.44,2.43,12.68.48,15.12-3.43,2.44-3.89,6.34-4.87,6.34-4.87,0,0,11.71.48,15.61-3.41,3.9-3.91,1.46-11.23,1.46-11.23,0,0,2.93,4.4,9.27,0,6.34-4.39,1.95-13.16-1.46-28.28-3.41-15.12-42.92-42.92-44.87-53.17-1.95-10.24-2.44-23.89.49-32.19,2.93-8.29,2.44-14.63,2.44-27.8s-4.88-40.97-4.88-55.11,1.38-41,4.88-54.31c58.53-222.73,19.51-343.69,18.53-352.72-.98-9.01-2.93,3.49,1.95-32.59,4.88-36.09-7.8-90.08-7.48-95.28s2.28-22.44.16-32.35c43.9-50.73,35.98-258.65,37.07-289.23,1.01-28.55-9.92-104.39-9.92-104.39-1.79-31.95-10.08-66-15.28-92.01s-11.87-34.79-17.23-55.28c-5.36-20.48-11.06-106.65-13.01-131.36-1.95-24.71-3.25-69.25-.65-76.08,2.6-6.84-.98-13.67,11.05-32.2,12.03-18.53,17.88-85.19,17.88-85.19,2.18-1.48,3.58,2.28,8.13,2.44,9.75,42.11,22.44,73,31.21,83.4,7.61,9.01,13.66,15.61,15.61,30.56,1.95,14.96,1.3,16.27,5.2,47.48,3.9,31.21,19.61,72.11,28.01,85.84,7.76,12.68,76.73,147.65,82.22,168.11,8.94,33.33,4.52,42.57,4.23,53-.63,22.45,8.45,49.09,12.36,68.28,3.9,19.19,11.54,31.55,13.01,54.96,1.46,23.4,2.28,61.93,13.49,61.93s9.99-38.25,11.46-53.65c1.12-11.71.24-15.84,6.1-17.07,3.9,6.59,10.24,50,15.36,67.55,5.12,17.56,6.83,32.44,19.75,28.53,8.37-2.52,1.81-41.04.73-48.52-2.13-14.8-6.1-32.28-7.72-44.96,6.5,10.41,13.44,32.99,19.83,45.69,3.78,7.49,12.35,33.32,27.64,43.4,5.46,3.6,13.66.97,13.49-10.89-.12-8.52-13.01-33.49-15.77-41.79-2.76-8.28-9.75-29.25-14.06-47.05,2.68,2.92,17.8,22.43,21.83,27.67,3.54,5.37,21.58,35.97,24.75,38.41,3.17,2.44,10.49,3.65,15.61-3.65,5.12-7.32-13.9-33.41-20.24-47.56s-22.35-38.04-22.84-45.84c-.49-7.81,2.72-17.56,2.72-17.56,0,0,2.32.12,11.83,6.33,7.93,17.81,32.27,23.09,41.38,20.97,9.1-2.11,6.83-14.95,3.58-18.37"/>
      <path id="chest" class="cls-2" d="M380.44,483.11c-3.13,41.96,7.86,92.72,41.65,112.87,12.41,7.39,26.79,10.61,40.95,13.48,44.45,8.96,98.18-13.17,102.52-53.79,4.65-43.45,11.26-95.47-8.25-133.51-12.98-25.31-25.52-25.36-39.66-26.83s-57.88-2.92-74.96,4.88c-22.19,10.15-48.33,24.88-56.13,49.43-3.1,9.76-5.21,21.24-6.13,33.47"/>
      <path id="chest1" class="cls-2" d="M394.09,580.19c13.66,16.09,33.99,27.36,45.69,33.35,5.91,3.03,6.5,14.45,1.63,15.92-4.88,1.45-44.87-12.81-49.75-21.77s-6.34-22.13-5.37-27.49c.98-5.36,7.8,0,7.8,0"/>
      <path id="obliques" class="cls-2" d="M380.46,617.96c-.18,1.09-.16,2.17.12,3.24,4.54,16.84,20.55,45.03,26.99,48.24,3.9,1.96,21.95-17.56,24.39-19.01,2.44-1.47,7.8-8.79,7.8-8.79,0,0-38.77-14.01-46.13-20.73-2.61-2.37-11.06-15.52-11.06-15.52l-2.12,12.57"/>
      <path id="obliques1" class="cls-2" d="M383.2,648.96s-3.41,25.85,5.85,45.36c9.27,19.51,13.17,21.95,13.17,21.95,0,0,11.71-31.21,6.83-36.09s-25.85-31.21-25.85-31.21"/>
      <path id="obliques2" class="cls-2" d="M409.66,775.04c6.18,9.43,47.1,40.24,51.33,45.44s-.04,36.99,1.38,49.43c-16.26-3.91-50.79-32.36-53.06-43.41-2.28-11.05.35-51.45.35-51.45"/>
      <path id="obliques3" class="cls-2" d="M407.58,724.12c2.28,2.44,38.29,32.68,53.33,39.76,6.45,3.04,1.46,49.99,1.46,49.99,0,0-44.49-35.87-51.21-46.6-6.71-10.72-4.15-17.63-4.8-22.17-.65-4.56,1.22-20.97,1.22-20.97"/>
      <path id="abs" class="cls-2" d="M483.18,633.35c-8.71,5.92-8.78,22.93-10.24,29.76-1.46,6.83,3.41,37.55,3.41,37.55,0,0,4.88,24.39,6.83,27.32,2.44,3.64,66.54-37.83,72.71-41.64,5.19-3.23,11.92-3.16,14.35-9.95,4-11.15,1.9-24.77,1.42-36.52-.42-10.32.19-32.29-9.69-38.77-8.85-5.79-20.77,4.17-28.66,7.65-13.61,6.01-27.26,12.08-40.43,19.01-3.3,1.73-6.61,3.49-9.7,5.59"/>
      <path id="abs1" class="cls-2" d="M562.77,698.99c-6.55,1.57-7.71,3.77-14,6.8-7.78,3.75-15.44,7.76-22.99,11.93-11.72,6.48-26.14,13.21-35.39,23.2-.36.39-.71.77-1.03,1.2-7.48,10.08-7.8,44.21-7.15,46.49.65,2.28,85.06,8.95,89.26-3.09,3.55-10.16.83-20.96,1.22-31.56.56-15.31,1.4-33.55-.24-47.2-.14-1.13-6.58-8.51-9.67-7.77"/>
      <path id="abs2" class="cls-2" d="M481.98,809.75c-5.3,15.61-2.38,55.28,4.13,60.8,6.5,5.53,74.79,5.28,81.94,4.96,7.15-.33,6.71-34.55,6.83-45.6.12-11.05.86-29.85-3.36-31.48-4.23-1.63-35.01-1.36-44.44,2.21-9.43,3.59-45.09,9.11-45.09,9.11"/>
      <path id="abs3" class="cls-2" d="M481.98,888.44c1.52,24.05,16.56,220.96,75.54,234.84,5.53,1.31,11.43,7.25,13.09,4,4.39-10.4,4.38-219.33,4.38-228.44s-13.95-10.04-21.11-11.99c-7.15-1.95-64.96-3.61-68.44-1.01l-3.47,2.6"/>
      <path id="obliques4" class="cls-2" d="M409.06,841.56c.37-.92,1.58-1.07,2.26-.36,27.47,28.71,46.69,37.41,52.02,41.71,5.04,4.07,6.5,93.32,12.36,115.43,2.63,9.96,7.7,19.87,3.28,22-5.85,2.84-21.29-4.28-25.68-9.07l-52.39-57.15s1.16-95.43,8.15-112.56"/>
      <path id="obliques5" class="cls-2" d="M453.92,642.61c-22.11,18.87-31.93,27.85-34.3,32.03-2.65,4.65,30.08,31.05,38.86,33.99,8.78,2.92,3.9-24.07,3.9-31.55s.65-36.73,0-38.69c-.65-1.95-8.45,4.23-8.45,4.23"/>
      <path id="obliques6" class="cls-2" d="M416.74,692.4c.59-1.85,2.9-2.49,4.31-1.16,10.11,9.55,37.99,23.83,39.57,28.93,1.23,3.95,3.87,32.8.29,33.77-3.58.97-52.48-32.92-51.87-36,.81-4.09,5.4-18.27,7.7-25.55"/>
      <path id="path184" class="cls-2" d="M517.81,250.96c21.95,17.72,22.37,37.11,32.03,56.41,27.8,55.61,17.68,89.16,11.23,82.24-18.8-20.13-38.38-84.51-41.3-89.88-2.93-5.36-1.95-48.77-1.95-48.77"/>
      <path id="trapezius2" class="cls-2" d="M514.43,331.6c-2.6,20.16-.99,26.83,3.23,37.56s27.96,21.95,30.23,23.57c-12.84-30.72-24.71-51.87-30.23-71.04-4.56.97-3.23,9.91-3.23,9.91"/>
      <path id="trapezius3" class="cls-2" d="M498.14,327.87c-11.06,13.33-53,40.89-64.71,44.55-1.95,7.56,59.5,14.47,67.31,8.29,7.8-6.19,7.8-46.01,6.5-52.84-1.3-6.83-9.1,0-9.1,0"/>
      <path id="shoulders2" class="cls-2" d="M422.88,399.72c-5.87,3.83-13.92,5.59-20.29,8.53-18.76,8.64-36.17,18.01-35.99,41.03.14,17.92,2.29,37.31-7.42,52.36-6.18,9.59-14.33,17.63-21.55,26.39-7.14,8.65-11.36,16.51-23.54,10.15-28.56-14.93-48.3-44.28-45.77-77.15,1.39-18.17,9.64-35.72,22.58-48.53,14.37-14.23,28.32-28.21,46.87-37.21,25.42-12.33,53.72-7.8,76.64,8,8.29,5.72,8.47,16.44,8.47,16.44"/>
      <path id="biceps" class="cls-2" d="M337.99,593.49c-11.95,44.45-57.95,143.45-58.7,145.79-1.83,5.68,1.76,13.21,6.43,16.61,7.31,5.32,15-5.95,18.95-10.8,26.66-32.89,50.21-94.77,53.98-109.96,4.51-18.19,18.86-43.89,13.01-74.45-5.85-30.57-11.05-44.88-13.66-41.63-3.43,4.31-4.17,13.28-5.51,18.41-3.6,13.88-5.5,28.21-9.44,41.89-1.38,4.79-3.75,9.27-5.05,14.13"/>
      <path id="biceps1" class="cls-2" d="M293.94,559.27c-15.13,7.8-40.79,52.39-44.38,74.63-6.67,41.25-4.64,63.73-5.04,75.92-.4,12.2,21.46,9.76,39.67-6.83,11.34-10.32,41.85-79.67,35.77-113.91-4.45-25.01-12.36-35.67-26.01-29.81"/>
      <path id="forearms6" class="cls-2" d="M237.69,728.08c16.31-8.12,8.38,98.73-2.93,126.87-12.03,29.92-27.73,69.77-42.92,106.32-9.08,21.87-34.79,101.13-45.85,106.33-11.05,5.2-.65-47.15,4.55-67.96,5.2-20.81,20.16-107.35,24.71-123.59,4.55-16.23,1.3-61.49,13.01-78.2,11.71-16.72,25.36-57.79,49.42-69.77"/>
      <path id="forearms7" class="cls-2" d="M282.07,781.79c8.45,31.87-4.8,62.19-11.3,81.04-6.5,18.87-19.27,37.32-30.97,55.52-11.71,18.21-43.95,93.99-51.54,114.13-18.19,48.29-26.99,34.47-19.83,16.25,7.15-18.2,20.65-59.49,29.1-79.01,8.45-19.51,10.89-31.07,20.97-53.16,9.92-21.73,21.3-45.03,28.45-64.55,7.15-19.51,10.41-66.97,22.11-70.23,11.71-3.25,13.01,0,13.01,0"/>
      <path id="forearms8" class="cls-2" d="M252.48,915.99c-14.37,18.21-25.47,42.13-32.68,58.95-6.66,15.53-13.05,31.19-19.24,46.92-5.73,14.57-11.59,29.24-16.07,44.27-.75,2.49-2.98,6.19-1.92,8.81,2.7-2.19,4.01-5.55,5.71-8.47,1.79-3.07,3.48-6.19,5.11-9.33,3.87-7.44,7.44-15.03,10.92-22.65,7.9-17.31,15.27-34.84,22.86-52.29,6.52-14.99,12.98-30.13,20.85-44.47.39-.72.79-1.43,1.19-2.13,18.86-33.17,24.71-42.28,32.51-61.79,7.8-19.51,24.71-51.37,22.11-57.23-1.81-4.07-8.35-10.6-11.2-12.68-1-.72-1.86,5.6-1.95,6.83-3.08,40.64-25.2,88.79-38.21,105.27"/>
      <path id="path202" class="cls-2" d="M428.55,1563.95c10.24,0,44.4,2.44,48.29,6.35,3.89,3.89,11.21,58.04-10.25,87.31-21.46,29.25-39.99,14.13-45.85-2.93-5.85-17.07-23.9-64.87-17.07-79.49,6.83-14.64,24.87-11.23,24.87-11.23"/>
      <path id="calves4" class="cls-2" d="M493.42,1597.12c-7.32,33.65-12.16,48.28-35.12,93.64-18.82,37.19-25.39,71.69-16.59,70.72,8.79-.97,40.49-74.19,45.37-87.8,4.88-13.61,19.55-55.31,20.73-63.88,1.66-12.12-2.19-20-5.12-23.41s-9.27,10.73-9.27,10.73"/>
      <path id="calves5" class="cls-2" d="M490.66,1696.77c-8.45,26.01-38.37,66.33-40.32,91.69s17.76,187.63,15.61,207.77c7.92-13.76,17.87-77.4,31.87-110.87,8.62-20.63,15.2-48.07,0-140.48-4.43-26.95-7.15-48.12-7.15-48.12"/>
      <path id="calves6" class="cls-2" d="M402.16,1622.96c10.79,73.16,46.88,247.77,50.78,325.81s.98,67.8-2.44,74.13c-3.41,6.35-34.63-80.31-44.38-129.08s-21.46-167.79-16.91-213.31,2.6-80.64,7.15-78.69c4.55,1.96,5.8,21.13,5.8,21.13"/>
      <path id="calves7" class="cls-2" d="M374.25,1707.83c-4.55,53.33-2.6,152.83,4.55,194.45,7.15,41.61,29.27,125.51,31.22,139.81s-4.55,30.56,0,35.77c4.55,5.2,20.16-27.31,17.56-54.63-2.6-27.32-22.32-96.91-27.74-124.21-5.42-27.32-19.08-96.25-18.43-120.31.65-24.07.65-54.63,1.95-78.69,1.3-24.05,4.55-33.81,0-33.81s-9.1,41.61-9.1,41.61"/>
      <path id="path212" class="cls-2" d="M407.94,2138.99c12.15,22.28,54.63,31.87,60.48,53.33,9.1-8.45,16.26-42.92,11.71-62.44-4.55-19.51-8.45-33.81-13.01-40.32-4.55-6.49-5.88-9.76-10.41-16.25-4.05-5.81-17.88-20.4-28.29-8.69-10.4,11.71-8.58,17.15-10.96,32.76-2.37,15.6-13.43,34.47-9.53,41.61"/>
      <path id="path214" class="cls-2" d="M444.65,2039.99c23.9,21.61,30.24,52.67,30.24,44.87s1.46-29.76-7.31-39.51c-8.78-9.76-13.56-11.21-19.22-11.21s-3.71,5.85-3.71,5.85"/>
      <path id="path216" class="cls-2" d="M415.38,2174.11c-7.31,19.03-48.29,65.2-53.16,74.47s27.96,18.85,34.79,18.85,27.96,4.07,32.84,6.51,6.01-15.45,6.5-21.31,18.63-35.11,12-49.25c-6.63-14.15,9.79-9.76-4.03-18.53-13.82-8.79-28.94-10.73-28.94-10.73"/>
      <path id="path218" class="cls-2" d="M453.59,2216.53c0,11.23-.39,24.88-7.02,41.47s1.46,21.45,3.51,20.48,16.19-3.89,16.19-3.89c0,0,5.37-8.79,3.9-14.15-1.46-5.37,13.01-20.85,5.2-33.65-7.8-12.81-9.79-27.48-11.71-31.87s-10.08,21.61-10.08,21.61"/>
      <path id="path220" class="cls-2" d="M129.28,1085.81c2.69-.47,5.4-.59,8.12-.27,15.49,1.83,42.49,4.96,48.64,22.48.71,2.03.77,4.23.79,6.39.21,22.84-2.57,45.75-8.45,67.83-1.11,4.15-2.39,8.33-4.85,11.85-13.87,19.85-51.25,6.35-66.89-3.55-14.13-8.95-35.37-22.8-36.35-40.97-.87-16.16,8.79-33.51,21.81-42.73,10.66-7.55,23.64-18.68,37.19-21.03"/>
      <path id="path222" class="cls-2" d="M151.88,1211.97c-.19,10.33-.33,20.67-.26,31,.06,6.65.26,13.31.93,19.92.55,5.51.69,15.71,4.16,20.04,2.07,2.59,7.89-13.29,8.08-14.25.9-4.51.75-60.49,3.18-60.79-5.44.64-10.93,2.28-16.08,4.08"/>
      <path id="path224" class="cls-2" d="M119.49,1211.13c-4.3,18.04-5.8,36.92-8.87,55.21-1,5.99-2.01,11.97-2.94,17.96-1.23,7.95-2.59,14.49-1.7,22.65.08.76.19,1.56.68,2.15,2.26,2.69,7.63-.05,9.28-2.11,1.82-2.25,2.56-5.19,3.03-8.05,1.3-7.99,3.19-15.85,4.8-23.79,2.44-12.01,4.74-24.07,7.17-36.08,1.49-7.39,2.99-14.77,4.48-22.16.18-.89.35-1.87-.04-2.69-.81-1.69-15.86-3.28-15.9-3.09"/>
      <path id="path226" class="cls-2" d="M90.91,1203.12c-2.58,2.69-4.32,12.53-5.14,14.99-2.24,6.72-4.63,13.39-7.08,20.03-4.83,13.04-9.94,25.97-14.88,38.97-3.29,8.67-7.61,17.04-7.5,26.55.06,5.08,6.35,2.57,9.01,1.32,8.52-4.04,9.6-10.73,12.8-18.63,2.47-6.09,5.01-12.17,7.56-18.25,7.92-18.81,15.95-37.56,24.98-55.89.34-.68.68-1.39.76-2.13.69-6.75-15.16-7.47-19.14-7.61-.48-.03-.93.23-1.36.67"/>
      <path id="path228" class="cls-2" d="M68.42,1182.27c-4.59,3.85-14.29,25.77-15.98,28.91-4.87,8.99-9.72,17.99-14.57,27-3.92,7.27-11.6,16.8-12.5,25.17-.27,2.07-2.18,13.43,2.87,11.12.76-.35,1.33-.99,1.89-1.6,13.33-15.12,23.7-31.89,35.15-48.39,3.36-4.84,6.55-9.8,10.11-14.49,3.07-4.04,8.31-7.8,10.73-12.13,1.05-1.88.92-4.17.77-6.32-.06-.76-.12-1.57-.53-2.23-.38-.61-1-1.01-1.6-1.39-4.63-2.83-9.69-4.93-14.96-6.21-.37-.09-.83.12-1.36.56"/>
      <path id="path230" class="cls-2" d="M64.7,1114.75c-8.13,7.8-21.46,23.04-26.99,34.6-5.53,11.57-29.26,16.12-29.59,23.28-.33,7.15-1.95,11.71,1.3,12.03,3.25.32,15.61.97,23.09-5.85,7.48-6.83,13.01-10.73,17.88-17.56s9.1-14.96,11.38-25.68c2.28-10.73,8.78-25.69,8.78-25.69l-5.85,4.88"/>
      <path id="path232" class="cls-2" d="M580.16,267.07c.55,25.36,3.7,67.95.35,77.39-3.35,9.43-11.39-24.07-22.33-47.15-10.94-23.09-6.82-14.43-9.75-24.83s-20.05-9.43-8.35-10.4,40.08,4.99,40.08,4.99"/>
      <path id="iliopsoas" class="cls-2" d="M443.99,1019.05c20.01,14.96,82.45,94.29,102.78,193.8,0,0-10.65,35.63-24.93,32.51-3.18-.69-49.06-146.8-85.64-214.6-10.49-19.44-11.22-29.75-11.22-29.75l19,18.04"/>
      <path id="quadriceps" class="cls-2" d="M413.92,1019.64c24.86,82.75,107.57,396.91,106.08,445.79,24.86-71.13,4.47-164.69-26.09-254.6-25.56-75.19-79.99-191.19-79.99-191.19"/>
      <path id="quadriceps1" class="cls-2" d="M400.92,1037.36c15.61,72.79,68.96,190.08,75.73,291.67,6.52,97.89-5,197.05-23.21,204.87-18.21,7.8-49.16-121.07-54.46-142.76-13.46-55.04-43.05-155.53-39.8-207.45,2.81-44.81,10.36-68.31,16.39-89.09,8.1-27.93,25.36-57.23,25.36-57.23"/>
      <path id="quadriceps2" class="cls-2" d="M366.12,1288.71c3.25,29.27,22.92,125.03,47.8,186.96,11.58,28.85,14.96,59.83,5.85,69.59s-19.51-44.23-33.82-66.99-26.25-96.23-27.04-125.83c-1.03-38.64-7.43-68.93-4.17-79.35,3.25-10.4,11.38,15.61,11.38,15.61"/>
      <path id="quadriceps3" class="cls-2" d="M483.87,1351.47c10.04,112.01-17.83,166.47-2.97,189.88s26.55,13.25,24.71.33c-3.26-22.96,14.14-60.27,0-126.49-7.48-35.01-21.75-63.72-21.75-63.72"/>
      <path id="adductors2" class="cls-2" d="M552.11,1227.25c-12.03,17.88-28.29,34.52-27.96,40.19.33,5.65,16.91,91.49,15.93,101.25,10.08-9.76,19.51-126.81,18.86-137.55-.65-10.72-6.83-3.89-6.83-3.89"/>
      <path id="chest2" class="cls-2" d="M780.38,483.11c3.13,41.96-7.86,92.72-41.65,112.87-12.41,7.39-26.79,10.61-40.95,13.48-44.45,8.96-98.18-13.17-102.52-53.79-4.65-43.45-11.26-95.47,8.25-133.51,12.98-25.31,25.52-25.36,39.66-26.83,14.15-1.47,57.89-2.92,74.96,4.88,22.19,10.15,48.33,24.88,56.13,49.43,3.1,9.76,5.21,21.24,6.13,33.47"/>
      <path id="chest3" class="cls-2" d="M766.73,580.19c-13.66,16.09-33.98,27.36-45.68,33.35-5.91,3.03-6.5,14.45-1.63,15.92,4.88,1.45,44.87-12.81,49.75-21.77s6.34-22.13,5.37-27.49-7.8,0-7.8,0"/>
      <path id="obliques7" class="cls-2" d="M780.35,617.96c.18,1.09.16,2.17-.12,3.24-4.54,16.84-20.56,45.03-26.99,48.24-3.9,1.96-21.95-17.56-24.39-19.01-2.44-1.47-7.8-8.79-7.8-8.79,0,0,38.77-14.01,46.13-20.73,2.61-2.37,11.06-15.52,11.06-15.52l2.12,12.57"/>
      <path id="obliques8" class="cls-2" d="M777.62,648.96s3.41,25.85-5.85,45.36-13.17,21.95-13.17,21.95c0,0-11.71-31.21-6.83-36.09s25.85-31.21,25.85-31.21"/>
      <path id="obliques9" class="cls-2" d="M751.16,775.04c-6.18,9.43-47.1,40.24-51.33,45.44s.04,36.99-1.38,49.43c16.26-3.91,50.79-32.36,53.06-43.41,2.28-11.05-.35-51.45-.35-51.45"/>
      <path id="obliques10" class="cls-2" d="M753.24,724.12c-2.28,2.44-38.29,32.68-53.33,39.76-6.44,3.04-1.46,49.99-1.46,49.99,0,0,44.49-35.87,51.21-46.6,6.71-10.72,4.15-17.63,4.8-22.17.65-4.56-1.22-20.97-1.22-20.97"/>
      <path id="abs4" class="cls-2" d="M677.64,633.35c8.71,5.92,8.78,22.93,10.24,29.76,1.46,6.83-3.41,37.55-3.41,37.55,0,0-4.88,24.39-6.83,27.32-2.44,3.64-66.54-37.83-72.71-41.64-5.19-3.23-11.92-3.16-14.35-9.95-4.01-11.15-1.9-24.77-1.42-36.52.42-10.32-.19-32.29,9.69-38.77,8.85-5.79,20.78,4.17,28.66,7.65,13.61,6.01,27.26,12.08,40.43,19.01,3.3,1.73,6.61,3.49,9.7,5.59"/>
      <path id="abs5" class="cls-2" d="M598.05,698.99c6.55,1.57,7.71,3.77,14,6.8,7.78,3.75,15.43,7.76,22.99,11.93,11.72,6.48,26.14,13.21,35.39,23.2.36.39.71.77,1.03,1.2,7.48,10.08,7.8,44.21,7.15,46.49-.65,2.28-85.05,8.95-89.26-3.09-3.55-10.16-.83-20.96-1.22-31.56-.56-15.31-1.4-33.55.24-47.2.14-1.13,6.58-8.51,9.67-7.77"/>
      <path id="abs6" class="cls-2" d="M678.84,809.75c5.3,15.61,2.38,55.28-4.13,60.8-6.5,5.53-74.79,5.28-81.94,4.96-7.15-.33-6.71-34.55-6.83-45.6s-.87-29.85,3.36-31.48,35.01-1.36,44.44,2.21c9.43,3.59,45.09,9.11,45.09,9.11"/>
      <path id="abs7" class="cls-2" d="M678.84,888.44c-1.52,24.05-16.56,220.96-75.54,234.84-5.53,1.31-11.43,7.25-13.09,4-4.39-10.4-4.38-219.33-4.38-228.44s13.95-10.04,21.11-11.99c7.15-1.95,64.96-3.61,68.44-1.01l3.48,2.6"/>
      <path id="obliques11" class="cls-2" d="M751.75,841.56c-.37-.92-1.58-1.07-2.26-.36-27.47,28.71-46.69,37.41-52.02,41.71-5.04,4.07-6.5,93.32-12.36,115.43-2.63,9.96-7.7,19.87-3.28,22,5.85,2.84,21.29-4.28,25.68-9.07l52.39-57.15s-1.16-95.43-8.15-112.56"/>
      <path id="obliques12" class="cls-2" d="M706.9,642.61c22.11,18.87,31.93,27.85,34.3,32.03,2.65,4.65-30.08,31.05-38.86,33.99-8.78,2.92-3.9-24.07-3.9-31.55s-.65-36.73,0-38.69c.65-1.95,8.45,4.23,8.45,4.23"/>
      <path id="obliques13" class="cls-2" d="M744.08,692.4c-.58-1.85-2.9-2.49-4.31-1.16-10.11,9.55-37.99,23.83-39.57,28.93-1.23,3.95-3.87,32.8-.29,33.77,3.58.97,52.48-32.92,51.87-36-.81-4.09-5.4-18.27-7.7-25.55"/>
      <path id="path272" class="cls-2" d="M643.01,250.96c-21.95,17.72-22.37,37.11-32.03,56.41-27.8,55.61-17.68,89.16-11.23,82.24,18.8-20.13,38.38-84.51,41.3-89.88,2.93-5.36,1.95-48.77,1.95-48.77"/>
      <path id="trapezius4" class="cls-2" d="M646.39,331.6c2.6,20.16.99,26.83-3.23,37.56s-27.96,21.95-30.23,23.57c12.84-30.72,24.71-51.87,30.23-71.04,4.56.97,3.23,9.91,3.23,9.91"/>
      <path id="trapezius5" class="cls-2" d="M662.68,327.87c11.05,13.33,53,40.89,64.71,44.55,1.95,7.56-59.5,14.47-67.31,8.29-7.8-6.19-7.8-46.01-6.5-52.84,1.3-6.83,9.11,0,9.11,0"/>
      <path id="shoulders3" class="cls-2" d="M737.94,399.72c5.87,3.83,13.92,5.59,20.29,8.53,18.76,8.64,36.17,18.01,35.99,41.03-.14,17.92-2.29,37.31,7.42,52.36,6.17,9.59,14.33,17.63,21.55,26.39,7.14,8.65,11.36,16.51,23.54,10.15,28.56-14.93,48.3-44.28,45.77-77.15-1.4-18.17-9.64-35.72-22.58-48.53-14.36-14.23-28.32-28.21-46.87-37.21-25.42-12.33-53.72-7.8-76.63,8-8.29,5.72-8.47,16.44-8.47,16.44"/>
      <path id="biceps2" class="cls-2" d="M822.83,593.49c11.95,44.45,57.95,143.45,58.7,145.79,1.83,5.68-1.76,13.21-6.43,16.61-7.31,5.32-15-5.95-18.95-10.8-26.66-32.89-50.21-94.77-53.98-109.96-4.51-18.19-18.86-43.89-13.01-74.45,5.85-30.57,11.05-44.88,13.66-41.63,3.43,4.31,4.17,13.28,5.5,18.41,3.6,13.88,5.5,28.21,9.44,41.89,1.38,4.79,3.75,9.27,5.06,14.13"/>
      <path id="biceps3" class="cls-2" d="M866.88,559.27c15.13,7.8,40.79,52.39,44.38,74.63,6.67,41.25,4.64,63.73,5.04,75.92.4,12.2-21.46,9.76-39.67-6.83-11.34-10.32-41.85-79.67-35.77-113.91,4.45-25.01,12.36-35.67,26.01-29.81"/>
      <path id="forearms9" class="cls-2" d="M923.13,728.08c-16.31-8.12-8.38,98.73,2.93,126.87,12.03,29.92,27.73,69.77,42.92,106.32,9.08,21.87,34.79,101.13,45.85,106.33,11.05,5.2.65-47.15-4.55-67.96-5.2-20.81-20.16-107.35-24.71-123.59-4.55-16.23-1.3-61.49-13.01-78.2-11.71-16.72-25.36-57.79-49.42-69.77"/>
      <path id="forearms10" class="cls-2" d="M878.75,781.79c-8.45,31.87,4.8,62.19,11.3,81.04,6.5,18.87,19.27,37.32,30.97,55.52,11.71,18.21,43.95,93.99,51.54,114.13,18.19,48.29,26.99,34.47,19.83,16.25-7.15-18.2-20.65-59.49-29.1-79.01-8.45-19.51-10.89-31.07-20.97-53.16-9.92-21.73-21.3-45.03-28.45-64.55-7.15-19.51-10.4-66.97-22.11-70.23-11.71-3.25-13.01,0-13.01,0"/>
      <path id="forearms11" class="cls-2" d="M908.34,915.99c14.37,18.21,25.47,42.13,32.68,58.95,6.66,15.53,13.05,31.19,19.24,46.92,5.73,14.57,11.59,29.24,16.07,44.27.75,2.49,2.98,6.19,1.92,8.81-2.7-2.19-4.01-5.55-5.71-8.47-1.79-3.07-3.48-6.19-5.11-9.33-3.87-7.44-7.44-15.03-10.92-22.65-7.9-17.31-15.27-34.84-22.86-52.29-6.52-14.99-12.98-30.13-20.85-44.47-.39-.72-.79-1.43-1.19-2.13-18.86-33.17-24.71-42.28-32.52-61.79-7.8-19.51-24.71-51.37-22.11-57.23,1.81-4.07,8.35-10.6,11.2-12.68,1-.72,1.86,5.6,1.95,6.83,3.08,40.64,25.2,88.79,38.21,105.27"/>
      <path id="path290" class="cls-2" d="M732.26,1563.95c-10.24,0-44.4,2.44-48.29,6.35-3.89,3.89-11.21,58.04,10.25,87.31,21.46,29.25,39.99,14.13,45.85-2.93,5.85-17.07,23.9-64.87,17.07-79.49-6.83-14.64-24.87-11.23-24.87-11.23"/>
      <path id="calves8" class="cls-2" d="M667.4,1597.12c7.32,33.65,12.16,48.28,35.12,93.64,18.82,37.19,25.39,71.69,16.59,70.72-8.79-.97-40.49-74.19-45.37-87.8-4.88-13.61-19.55-55.31-20.73-63.88-1.66-12.12,2.2-20,5.12-23.41,2.93-3.41,9.27,10.73,9.27,10.73"/>
      <path id="calves9" class="cls-2" d="M670.16,1696.77c8.45,26.01,38.37,66.33,40.32,91.69s-17.76,187.63-15.61,207.77c-7.92-13.76-17.86-77.4-31.87-110.87-8.62-20.63-15.2-48.07,0-140.48,4.43-26.95,7.15-48.12,7.15-48.12"/>
      <path id="calves10" class="cls-2" d="M758.66,1622.96c-10.79,73.16-46.88,247.77-50.78,325.81-3.9,78.04-.97,67.8,2.44,74.13,3.41,6.35,34.63-80.31,44.38-129.08s21.46-167.79,16.91-213.31-2.6-80.64-7.15-78.69c-4.55,1.96-5.79,21.13-5.79,21.13"/>
      <path id="calves11" class="cls-2" d="M786.56,1707.83c4.55,53.33,2.6,152.83-4.55,194.45-7.15,41.61-29.26,125.51-31.21,139.81-1.95,14.31,4.55,30.56,0,35.77-4.55,5.2-20.16-27.31-17.56-54.63,2.6-27.32,22.32-96.91,27.74-124.21,5.42-27.32,19.08-96.25,18.43-120.31-.65-24.07-.65-54.63-1.95-78.69-1.3-24.05-4.55-33.81,0-33.81s9.1,41.61,9.1,41.61"/>
      <path id="path300" class="cls-2" d="M752.88,2138.99c-12.15,22.28-54.63,31.87-60.48,53.33-9.1-8.45-16.26-42.92-11.71-62.44,4.55-19.51,8.45-33.81,13.01-40.32,4.55-6.49,5.88-9.76,10.41-16.25,4.05-5.81,17.88-20.4,28.29-8.69s8.58,17.15,10.96,32.76c2.37,15.6,13.43,34.47,9.53,41.61"/>
      <path id="path302" class="cls-2" d="M716.17,2039.99c-23.9,21.61-30.24,52.67-30.24,44.87s-1.46-29.76,7.32-39.51c8.78-9.76,13.56-11.21,19.22-11.21s3.71,5.85,3.71,5.85"/>
      <path id="path304" class="cls-2" d="M745.43,2174.11c7.32,19.03,48.29,65.2,53.16,74.47s-27.96,18.85-34.79,18.85-27.96,4.07-32.84,6.51-6.02-15.45-6.5-21.31c-.49-5.85-18.63-35.11-12-49.25,6.63-14.15-9.79-9.76,4.03-18.53,13.82-8.79,28.94-10.73,28.94-10.73"/>
      <path id="path306" class="cls-2" d="M707.23,2216.53c0,11.23.39,24.88,7.02,41.47s-1.46,21.45-3.51,20.48-16.19-3.89-16.19-3.89c0,0-5.37-8.79-3.9-14.15,1.46-5.37-13.01-20.85-5.2-33.65,7.8-12.81,9.79-27.48,11.71-31.87,1.91-4.39,10.08,21.61,10.08,21.61"/>
      <path id="path308" class="cls-2" d="M1031.54,1085.81c-2.69-.47-5.4-.59-8.12-.27-15.49,1.83-42.49,4.96-48.64,22.48-.71,2.03-.77,4.23-.79,6.39-.21,22.84,2.57,45.75,8.45,67.83,1.1,4.15,2.39,8.33,4.85,11.85,13.87,19.85,51.25,6.35,66.89-3.55,14.13-8.95,35.37-22.8,36.35-40.97.87-16.16-8.79-33.51-21.81-42.73-10.66-7.55-23.64-18.68-37.19-21.03"/>
      <path id="path310" class="cls-2" d="M1008.94,1211.97c.19,10.33.33,20.67.26,31-.06,6.65-.26,13.31-.93,19.92-.55,5.51-.69,15.71-4.16,20.04-2.07,2.59-7.89-13.29-8.08-14.25-.9-4.51-.74-60.49-3.18-60.79,5.44.64,10.93,2.28,16.08,4.08"/>
      <path id="path312" class="cls-2" d="M1041.33,1211.13c4.3,18.04,5.8,36.92,8.86,55.21,1,5.99,2.01,11.97,2.94,17.96,1.23,7.95,2.59,14.49,1.7,22.65-.08.76-.19,1.56-.68,2.15-2.26,2.69-7.63-.05-9.28-2.11-1.82-2.25-2.56-5.19-3.03-8.05-1.3-7.99-3.19-15.85-4.8-23.79-2.44-12.01-4.74-24.07-7.17-36.08-1.49-7.39-2.99-14.77-4.48-22.16-.18-.89-.36-1.87.04-2.69.81-1.69,15.86-3.28,15.9-3.09"/>
      <path id="path314" class="cls-2" d="M1069.91,1203.12c2.58,2.69,4.32,12.53,5.14,14.99,2.24,6.72,4.63,13.39,7.08,20.03,4.83,13.04,9.94,25.97,14.88,38.97,3.29,8.67,7.61,17.04,7.5,26.55-.06,5.08-6.35,2.57-9.01,1.32-8.52-4.04-9.6-10.73-12.8-18.63-2.47-6.09-5.01-12.17-7.56-18.25-7.92-18.81-15.95-37.56-24.97-55.89-.34-.68-.68-1.39-.76-2.13-.69-6.75,15.16-7.47,19.14-7.61.48-.03.93.23,1.36.67"/>
      <path id="path316" class="cls-2" d="M1092.4,1182.27c4.59,3.85,14.29,25.77,15.98,28.91,4.87,8.99,9.72,17.99,14.57,27,3.92,7.27,11.6,16.8,12.5,25.17.27,2.07,2.18,13.43-2.88,11.12-.76-.35-1.33-.99-1.89-1.6-13.33-15.12-23.7-31.89-35.15-48.39-3.36-4.84-6.55-9.8-10.11-14.49-3.06-4.04-8.31-7.8-10.73-12.13-1.05-1.88-.92-4.17-.77-6.32.06-.76.12-1.57.53-2.23.38-.61.99-1.01,1.6-1.39,4.62-2.83,9.69-4.93,14.96-6.21.37-.09.83.12,1.36.56"/>
      <path id="path318" class="cls-2" d="M1096.11,1114.75c8.13,7.8,21.46,23.04,26.99,34.6,5.53,11.57,29.26,16.12,29.59,23.28.33,7.15,1.95,11.71-1.3,12.03-3.25.32-15.61.97-23.09-5.85-7.48-6.83-13.01-10.73-17.88-17.56-4.88-6.83-9.1-14.96-11.38-25.68-2.28-10.73-8.78-25.69-8.78-25.69l5.85,4.88"/>
      <path id="path320" class="cls-2" d="M580.16,267.07c-.55,25.36-3.2,67.95.15,77.39,3.35,9.43,11.39-24.07,22.33-47.15,10.94-23.09,6.82-14.43,9.75-24.83s20.05-9.43,8.35-10.4c-11.71-.97-40.57,4.99-40.57,4.99"/>
      <path id="iliopsoas1" class="cls-2" d="M716.83,1019.05c-20.01,14.96-82.45,94.29-102.78,193.8,0,0,10.65,35.63,24.93,32.51,3.18-.69,49.06-146.8,85.64-214.6,10.49-19.44,11.22-29.75,11.22-29.75l-19,18.04"/>
      <path id="quadriceps4" class="cls-2" d="M746.9,1019.64c-24.86,82.75-107.57,396.91-106.08,445.79-24.86-71.13-4.47-164.69,26.09-254.6,25.56-75.19,79.99-191.19,79.99-191.19"/>
      <path id="quadriceps5" class="cls-2" d="M759.9,1037.36c-15.61,72.79-68.96,190.08-75.73,291.67-6.52,97.89,5,197.05,23.21,204.87,18.21,7.8,49.16-121.07,54.46-142.76,13.46-55.04,43.05-155.53,39.8-207.45-2.81-44.81-10.35-68.31-16.39-89.09-8.11-27.93-25.36-57.23-25.36-57.23"/>
      <path id="quadriceps6" class="cls-2" d="M794.69,1288.71c-3.25,29.27-22.92,125.03-47.8,186.96-11.58,28.85-14.96,59.83-5.85,69.59,9.1,9.76,19.51-44.23,33.82-66.99s26.25-96.23,27.04-125.83c1.03-38.64,7.43-68.93,4.17-79.35-3.25-10.4-11.38,15.61-11.38,15.61"/>
      <path id="quadriceps7" class="cls-2" d="M676.95,1351.47c-10.04,112.01,17.83,166.47,2.97,189.88-14.87,23.41-26.55,13.25-24.71.33,3.26-22.96-14.15-60.27,0-126.49,7.48-35.01,21.74-63.72,21.74-63.72"/>
      <path id="adductors3" class="cls-2" d="M608.7,1227.25c12.03,17.88,28.29,34.52,27.96,40.19-.33,5.65-16.91,91.49-15.93,101.25-10.08-9.76-19.51-126.81-18.86-137.55.65-10.72,6.83-3.89,6.83-3.89"/>
    </g>
  </g>
</svg>